HIERARCHY
ROOT hip
{
	OFFSET 0.000000 0.000000 0.000000 
	CHANNELS 6 Xposition Yposition Zposition Xrotation Zrotation Yrotation
	JOINT abdomen
	{
		OFFSET 0.000000 3.402643 0.000000 
		CHANNELS 3 Xrotation Zrotation Yrotation
		JOINT chest
		{
			OFFSET 0.000000 8.438565 -0.680529 
			CHANNELS 3 Xrotation Zrotation Yrotation
			JOINT neck
			{
				OFFSET 0.000000 10.207942 -0.272212 
				CHANNELS 3 Xrotation Zrotation Yrotation
				JOINT head
				{
					OFFSET 0.000000 3.130431 0.000000 
					CHANNELS 3 Xrotation Zrotation Yrotation
					End Site
					{
						OFFSET 0.000000 3.130435 0.000000 
					}
				}
			}
			JOINT lCollar
			{
				OFFSET 3.470700 6.669187 -0.816635 
				CHANNELS 3 Yrotation Zrotation Xrotation
				JOINT lShldr
				{
					OFFSET 3.198488 0.000000 0.000000 
					CHANNELS 3 Zrotation Yrotation Xrotation
					JOINT lForeArm
					{
						OFFSET 10.139888 0.000000 0.000000 
						CHANNELS 3 Yrotation Zrotation Xrotation
						JOINT lHand
						{
							OFFSET 8.370511 0.000000 0.000000 
							CHANNELS 3 Zrotation Yrotation Xrotation
							End Site
							{
								OFFSET 4.083176 0.000000 0.000000 
							}
						}
					}
				}
			}
			JOINT rCollar
			{
				OFFSET -3.470700 6.669187 -0.816635 
				CHANNELS 3 Yrotation Zrotation Xrotation
				JOINT rShldr
				{
					OFFSET -3.198488 0.000000 0.000000 
					CHANNELS 3 Zrotation Yrotation Xrotation
					JOINT rForeArm
					{
						OFFSET -10.139888 0.000000 0.000000 
						CHANNELS 3 Yrotation Zrotation Xrotation
						JOINT rHand
						{
							OFFSET -8.370511 0.000000 0.000000 
							CHANNELS 3 Zrotation Yrotation Xrotation
							End Site
							{
								OFFSET -4.083176 0.000000 0.000000 
							}
						}
					}
				}
			}
		}
	}
	JOINT lThigh
	{
		OFFSET 5.308129 -1.633274 1.361059 
		CHANNELS 3 Xrotation Zrotation Yrotation
		JOINT lShin
		{
			OFFSET -2.041588 -20.007561 0.000000 
			CHANNELS 3 Xrotation Zrotation Yrotation
			JOINT lFoot
			{
				OFFSET 0.000000 -19.190928 -1.224953 
				CHANNELS 3 Xrotation Yrotation Zrotation
				End Site
				{
					OFFSET 0.000000 -2.449906 4.627600 
				}
			}
		}
	}
	JOINT rThigh
	{
		OFFSET -5.308129 -1.633274 1.361059 
		CHANNELS 3 Xrotation Zrotation Yrotation
		JOINT rShin
		{
			OFFSET 2.041588 -20.007561 0.000000 
			CHANNELS 3 Xrotation Zrotation Yrotation
			JOINT rFoot
			{
				OFFSET 0.000000 -19.190928 -1.224953 
				CHANNELS 3 Xrotation Yrotation Zrotation
				End Site
				{
					OFFSET 0.000000 -2.449906 4.627600 
				}
			}
		}
	}
}
MOTION
Frames: 18
Frame Time: 0.016667
-5.300634 37.841671 -9.458059 -1.061880 -10.252200 35.851799 -18.736799 4.397680 -7.631620 10.382000 7.017920 -3.960190 4.690890 20.645599 -14.855500 11.972700 13.055100 -5.699930 2.000000 -2.000000 0.000000 95.280998 -136.673004 -2.558240 69.141197 -0.263530 0.127807 -179.897995 -179.876999 -7.126760 -2.000000 2.000000 0.000000 86.620697 -21.951401 149.141998 -67.324799 0.267555 0.126155 -0.086756 0.082086 -167.692993 -44.041191 15.160298 4.317096 73.794037 -0.047675 4.485762 -20.039804 -14.750177 -5.896719 -26.573210 9.522001 3.759579 63.942734 -0.801323 -4.143445 -29.757269 12.066342 7.002476 
-4.926728 38.263489 -9.684566 -0.545477 -10.048400 32.808601 -18.685301 4.397690 -6.821480 10.443700 6.422940 -3.505710 4.919500 20.276800 -14.418000 11.969400 12.958400 -5.529720 2.000000 -2.000000 0.000000 97.129700 -141.292999 -2.552440 71.455597 -0.258331 0.129668 -179.897003 -179.876007 -7.575970 -2.000000 2.000000 0.000000 84.023903 -19.553699 151.369995 -68.291496 0.265419 0.127026 -0.087432 0.083211 -168.162003 -43.090591 14.367873 2.546279 72.675659 0.053266 4.460567 -18.755854 -15.574635 -5.626579 -25.794224 9.043624 5.295127 61.792831 -0.985858 -4.042136 -29.139301 13.918601 7.930122 
-4.383146 38.756935 -9.937350 0.158524 -9.716760 28.829399 -18.722300 4.310250 -5.745290 10.362100 5.536750 -2.897450 5.271000 19.811199 -13.841700 11.954400 12.813600 -5.317210 2.000000 -2.000000 0.000000 98.206703 -147.190994 -2.747370 73.369698 -0.253977 0.131047 -179.899002 -179.878006 -6.423640 -2.000000 2.000000 0.000000 81.338898 -16.414400 153.848007 -69.346199 0.263072 0.127936 -0.087903 0.083981 -168.483994 -41.618885 12.867592 0.102679 70.663086 0.250216 4.381596 -17.942083 -17.188402 -5.684260 -25.250011 8.007073 6.370208 59.672440 -1.157263 -3.939990 -28.825174 14.944992 8.294991 
-3.839585 39.250381 -10.190145 0.841219 -9.334950 24.852400 -18.762699 4.217460 -4.656610 10.278300 4.651050 -2.297120 5.620270 19.346100 -13.261300 11.949200 12.658800 -5.105980 2.000000 -2.000000 0.000000 99.202301 -153.089005 -2.814560 75.293503 -0.249558 0.132287 -179.901993 -179.880005 -5.271300 -2.000000 2.000000 0.000000 78.849098 -13.186900 156.130997 -70.391197 0.260731 0.128794 -0.088363 0.084725 -168.796997 -40.021954 11.414970 -2.364944 68.631401 0.442967 4.307416 -17.156824 -18.802204 -5.745393 -24.753496 6.956953 7.432216 57.474388 -1.328309 -3.859846 -28.413933 16.029074 8.686639 
-3.135450 39.698174 -10.397723 1.579950 -8.522200 20.077999 -18.757000 4.006570 -3.327070 10.282200 3.603540 -1.570660 6.127810 18.888000 -12.555400 12.034700 12.520600 -4.831860 2.000000 -2.000000 0.000000 98.857903 -159.112000 -3.642670 75.733002 -0.248542 0.132549 -179.906006 -179.873993 -3.132590 -2.000000 2.000000 0.000000 76.300903 -9.130050 158.699005 -71.103996 0.259125 0.129355 -0.089017 0.095533 -169.235992 -37.646465 9.385825 -4.748158 66.422066 0.649234 4.199471 -16.642906 -21.445839 -6.205451 -24.886980 5.192880 6.837068 56.305664 -1.408620 -3.786318 -26.062504 16.440760 7.855336 
-2.431336 40.145950 -10.605313 2.246570 -7.650430 15.314800 -18.742599 3.805380 -2.000890 10.272900 2.546370 -0.832916 6.643190 18.419300 -11.854900 12.120500 12.392000 -4.547040 2.000000 -2.000000 0.000000 98.443001 -165.126007 -4.486400 76.172401 -0.247525 0.132803 -179.910004 -179.878998 -0.984165 -2.000000 2.000000 0.000000 73.967697 -4.975180 161.061996 -71.807198 0.257535 0.129889 -0.089679 0.096571 -169.675995 -35.257675 7.460622 -7.220444 64.126724 0.839953 4.129750 -16.023232 -24.106281 -6.727856 -25.122915 3.411216 6.217449 55.194965 -1.507760 -3.717861 -23.681255 16.853048 7.006665 
-1.639509 40.447906 -10.719719 2.595110 -6.555830 9.507910 -18.650101 3.676800 -0.230173 10.289500 1.479840 0.112926 6.874140 17.924601 -11.083000 12.037000 12.288200 -4.248480 2.000000 -2.000000 0.000000 97.323402 -171.363007 -5.926740 76.318901 -0.247186 0.132886 -179.912994 -179.882004 0.568584 -2.000000 2.000000 0.000000 71.839897 -0.497581 163.192001 -72.373596 0.256249 0.130304 -0.089649 0.096525 -169.656006 -32.405819 5.679519 -7.966172 62.025242 1.015068 4.010523 -16.556532 -23.754160 -6.948018 -26.302004 1.774351 4.427362 55.794785 -1.450042 -3.756779 -19.986437 14.376665 4.789317 
-0.847665 40.749859 -10.834112 2.835010 -5.432840 3.715100 -18.559999 3.537930 1.541060 10.292700 0.413202 1.067760 7.105650 17.430201 -10.322200 11.954000 12.194000 -3.936470 2.000000 -2.000000 0.000000 96.065498 -177.559998 -7.475080 76.465401 -0.246846 0.132969 -179.916000 -179.895004 2.131060 -2.000000 2.000000 0.000000 69.878601 4.058450 165.166000 -72.940002 0.254958 0.130707 -0.089604 0.096456 -169.626999 -29.535507 3.950643 -8.789649 59.915390 1.178967 3.923520 -17.084106 -23.428585 -7.200498 -27.495018 0.068267 2.663091 56.453693 -1.376997 -3.794243 -16.413353 11.783704 2.821440 
-0.086782 40.859177 -10.822800 2.681940 -3.882470 -2.047210 -18.391500 3.196090 3.329140 10.429200 -0.567195 1.995840 7.300440 17.227100 -9.583830 11.894100 12.195800 -3.618880 2.000000 -2.000000 0.000000 -85.847397 3.001670 169.173004 76.309097 -0.247208 0.132881 -179.908005 -179.888000 3.322480 -2.000000 2.000000 0.000000 68.376999 9.083890 166.837997 -72.588402 0.255760 0.130459 -0.089975 0.097030 -169.871002 -27.157393 2.003052 -7.062376 58.081722 1.273668 3.848070 -18.262392 -19.695057 -6.606098 -29.170116 -1.917265 -0.122561 58.566036 -1.211969 -3.933696 -13.655438 6.265189 1.067740 
0.674122 40.968357 -10.811488 2.375060 -2.361250 -7.813070 -18.227600 2.848150 5.103940 10.562700 -1.548420 2.919210 7.485270 17.025101 -8.850680 11.833800 12.188000 -3.300520 2.000000 -2.000000 0.000000 -88.092796 8.315650 165.606995 76.152901 -0.247570 0.132792 -179.919998 -179.899994 4.523630 -2.000000 2.000000 0.000000 67.003304 14.158400 168.404999 -72.246597 0.256537 0.130212 -0.090363 0.097626 -170.125000 -24.823236 0.022435 -5.392341 56.326912 1.371472 3.795476 -19.553408 -16.008867 -5.900671 -30.854174 -4.017492 -2.832737 60.862053 -1.030514 -4.017592 -11.102380 0.664057 -0.322223 
1.324602 40.852737 -10.743827 1.992590 -1.151650 -13.321500 -18.108700 2.465070 6.844120 10.820200 -2.569920 3.819710 8.015950 16.881001 -8.219650 11.961800 12.126000 -3.017950 2.000000 -2.000000 0.000000 -90.317902 12.513900 160.919998 76.006401 -0.247910 0.132708 -179.921997 -179.901993 5.617390 -2.000000 2.000000 0.000000 66.167999 19.556299 169.483002 -70.820801 0.259764 0.129134 -0.091604 0.099494 -170.925995 -23.741768 -1.341069 -1.978545 55.848103 1.357388 3.785510 -20.570591 -11.755129 -4.496619 -32.588932 -5.447991 -5.172204 63.611469 -0.792478 -4.162067 -10.139510 -3.647917 -0.697128 
1.975097 40.737267 -10.676176 1.503910 0.019524 -18.837400 -18.004999 2.079310 8.582410 11.055400 -3.592740 4.721410 8.544990 16.726801 -7.580290 12.089700 12.063900 -2.745400 2.000000 -2.000000 0.000000 -92.932999 16.526400 155.988998 75.869698 -0.248226 0.132629 -179.923996 -179.895004 6.711160 -2.000000 2.000000 0.000000 65.412399 24.973801 170.514999 -69.385300 0.262985 0.127969 -0.092887 0.101366 -171.735992 -22.753971 -2.766590 1.402545 55.311699 1.332911 3.791082 -21.661114 -7.549951 -3.028872 -34.354942 -6.963205 -7.442389 66.418068 -0.542374 -4.267328 -9.100464 -7.938625 -0.949741 
2.507356 40.504368 -10.572522 0.732493 0.800716 -22.343100 -17.675501 1.742300 9.781080 11.652900 -4.428620 5.331190 8.902400 16.654600 -7.385160 12.277100 11.990300 -2.636050 2.000000 -2.000000 0.000000 -95.117302 19.114300 151.393997 75.869698 -0.248226 0.132629 -179.923996 -179.895004 6.730690 -2.000000 2.000000 0.000000 64.062103 30.150000 170.341995 -67.178299 0.267877 0.126020 179.906006 179.897995 7.814690 -21.970358 -4.123552 3.134129 54.951355 1.307135 3.800503 -22.799589 -5.428133 -2.228487 -35.328484 -8.424027 -8.916095 69.214012 -0.333379 -4.378982 -8.654580 -9.057923 -0.734141 
3.039603 40.271465 -10.468867 -0.087922 1.542970 -25.861700 -17.359600 1.392670 10.975800 12.249700 -5.276410 5.934710 9.258860 16.582399 -7.178320 12.454400 11.917000 -2.531210 2.000000 -2.000000 0.000000 -97.544701 21.516600 146.626999 75.869698 -0.248226 0.132629 -179.923996 -179.895004 6.750220 -2.000000 2.000000 0.000000 62.606400 35.316799 170.018005 -64.971199 0.272691 0.123884 179.906006 179.897003 7.365470 -21.274921 -5.502419 4.858983 54.717354 1.291755 3.800967 -24.022469 -3.323635 -1.379331 -36.233887 -9.940268 -10.348330 71.862671 -0.106058 -4.457367 -8.066818 -10.142327 -0.512877 
3.476217 39.978130 -10.333815 -0.508108 1.953050 -28.386400 -17.192900 1.294700 12.124400 12.975200 -6.040880 6.505270 10.043700 16.284201 -7.312000 12.856400 11.701000 -2.625850 2.000000 -2.000000 0.000000 -98.663200 22.739799 142.904007 75.068901 -0.250076 0.132150 -179.923004 -179.904007 6.261920 -2.000000 2.000000 0.000000 60.474499 38.737900 168.684006 -62.715401 0.277522 0.121511 179.906006 179.897003 7.551020 -20.993652 -6.502913 5.242746 54.610680 1.272103 3.804566 -25.445690 -2.365957 -0.971645 -37.319122 -10.747577 -9.982905 73.480812 0.018365 -4.496469 -7.303880 -9.192064 -0.123850 
3.912831 39.684658 -10.198750 -0.948059 2.343430 -30.917601 -17.020000 1.181840 13.264600 13.701400 -6.806920 7.074990 10.826500 15.983500 -7.452400 13.247900 11.485200 -2.715560 2.000000 -2.000000 0.000000 -99.869003 23.885201 139.126007 74.277901 -0.251896 0.131651 -179.923004 -179.903000 5.783400 -2.000000 2.000000 0.000000 58.118999 42.110802 167.097000 -60.469299 0.282236 0.118961 179.906006 179.897003 7.746330 -20.743950 -7.511793 5.637187 54.503315 1.272364 3.808378 -26.862436 -1.396938 -0.535909 -38.469318 -11.582972 -9.569904 75.099525 0.159654 -4.535692 -6.516236 -8.227852 0.223116 
4.229310 39.423214 -10.156533 -1.241250 2.313910 -31.485600 -17.144800 1.227400 13.647800 13.802400 -7.303030 7.297270 11.294500 15.982800 -7.440320 13.407200 11.479800 -2.762580 2.000000 -2.000000 0.000000 -99.757698 24.476400 136.606003 73.867699 -0.252837 0.131383 -179.921997 -179.901993 5.275580 -2.000000 2.000000 0.000000 56.080101 43.217499 165.703003 -59.219299 0.284815 0.117463 -0.092529 0.100849 -171.511002 -20.714584 -8.225139 5.484099 54.749146 1.251045 3.828227 -27.867126 -0.541755 -0.109987 -39.587856 -12.291285 -8.629427 76.345695 0.256742 -4.576323 -4.362548 -6.763867 0.567319 
4.545755 39.161770 -10.114328 -1.524650 2.284350 -32.052898 -17.268801 1.263580 14.034300 13.903200 -7.789630 7.516700 11.762700 15.970500 -7.439520 13.556600 11.474600 -2.819380 2.000000 -2.000000 0.000000 -99.675400 25.077600 134.070007 73.467300 -0.253754 0.131114 -179.921005 -179.901001 4.758000 -2.000000 2.000000 0.000000 53.953201 44.275600 164.231003 -57.969299 0.287360 0.115908 -0.091360 0.099131 -170.768997 -20.698044 -8.928805 5.331141 54.976105 1.210774 3.848504 -28.835642 0.284251 0.339281 -40.682674 -12.982674 -7.678586 77.688271 0.331050 -4.593935 -2.365648 -5.301672 0.893832 
